<?xml version="1.0" standalone="no"?>
<!DOCTYPE svg PUBLIC "-//W3C//DTD SVG 20010904//EN"
 "http://www.w3.org/TR/2001/REC-SVG-20010904/DTD/svg10.dtd">
<svg version="1.0" xmlns="http://www.w3.org/2000/svg"
 width="512.000000pt" height="512.000000pt" viewBox="0 0 512.000000 512.000000"
 preserveAspectRatio="xMidYMid meet">
<metadata>
Created by potrace 1.14, written by Peter Selinger 2001-2017
</metadata>
<g transform="translate(0.000000,512.000000) scale(0.100000,-0.100000)"
fill="#000000" stroke="none">
<path d="M2498 4915 c-2 -2 -50 -5 -108 -9 -121 -7 -138 -10 -280 -37 -591
-114 -1096 -439 -1468 -945 -51 -71 -163 -256 -194 -324 -83 -180 -113 -258
-153 -401 -63 -224 -87 -402 -88 -650 0 -80 3 -166 6 -190 4 -24 9 -69 12 -99
6 -59 39 -232 55 -290 91 -326 221 -589 422 -855 27 -35 169 -198 180 -205 4
-3 38 -35 75 -71 343 -327 839 -561 1308 -615 160 -18 380 -23 495 -10 36 4
85 9 110 12 139 15 439 93 550 141 19 9 55 25 80 36 611 269 1076 777 1290
1407 32 94 74 251 85 320 4 25 9 52 10 60 3 16 12 84 21 160 7 57 7 326 0 405
-31 371 -165 764 -370 1085 -157 245 -420 510 -667 675 -382 255 -799 386
-1266 399 -57 1 -104 2 -105 1z m1437 -980 c41 -42 75 -82 75 -89 0 -7 -28
-37 -62 -67 -33 -30 -66 -59 -72 -64 -26 -24 -256 -224 -305 -265 -30 -25 -59
-50 -65 -55 -6 -6 -30 -28 -53 -49 l-43 -38 -51 52 -51 52 25 26 c13 15 37 42
53 61 16 18 38 43 49 55 11 12 105 120 209 239 103 119 194 217 202 217 8 0
48 -34 89 -75z m-1200 -575 c250 -61 439 -207 552 -425 26 -49 61 -142 69
-180 20 -99 23 -133 19 -225 -4 -120 -30 -232 -77 -323 -29 -59 -72 -130 -93
-154 -179 -206 -383 -306 -630 -307 -130 -1 -184 7 -280 39 -259 89 -463 311
-530 580 -45 179 -12 444 72 577 12 21 23 40 23 43 0 14 83 117 134 165 118
113 253 182 416 215 77 15 254 12 325 -5z m-925 -1648 c0 -2 -6 -9 -12 -16 -7
-7 -38 -41 -68 -76 -30 -35 -62 -71 -70 -80 -8 -9 -42 -47 -75 -85 -33 -39
-62 -72 -65 -75 -3 -3 -34 -39 -70 -80 -36 -41 -79 -91 -97 -110 -17 -19 -41
-47 -53 -63 l-22 -27 -29 21 c-35 24 -115 105 -136 136 -14 21 -12 24 23 55
21 18 48 42 60 53 12 11 47 42 79 69 31 28 143 125 248 216 l190 167 49 -51
c26 -27 48 -52 48 -54z"/>
<path d="M2499 2754 c-143 -42 -190 -231 -83 -338 127 -127 350 -34 347 145
-3 139 -130 232 -264 193z"/>
</g>
</svg>
